<?xml version="1.0" encoding="UTF-8" standalone="no"?>
<svg xmlns="http://www.w3.org/2000/svg" version="1.1" xmlns:xlink="http://www.w3.org/1999/xlink" 
xmlns:svgjs="http://svgjs.dev/svgjs"   width="308.7612359841165"
   height="304.915625"
    viewBox="0 0 2000 1500"

><rect width="2000" height="1500" fill="#282634"
>
</rect><g transform="matrix(0.44603033006244425,0,0,0.44603033006244425,552.580232658313,250)">
<svg viewBox="0 0 321 360" data-background-color="#282634" preserveAspectRatio="xMidYMid meet" 
height="2242" width="2000" xmlns="http://www.w3.org/2000/svg" xmlns:xlink="http://www.w3.org/1999/xlink">
<g id="tight-bounds" transform="matrix(1,0,0,1,0.5000234999999975,0)"><svg viewBox="0 0 320 360" height="360" 
width="320"><g><svg></svg></g><g><svg viewBox="0 0 320 360" height="360" width="320"><g><path 
transform="translate(-74.99272,-51.79039) scale(4.65793,4.65793)"
 d="M20.6 59.9l0.8 1-0.4-1.3c-0.1-0.6-0.8 0.1-0.4 0.3M21.5 59.3c0.3 0.5 0.6 1 0.6 1.5 0 0.7 0.6 1 1.1 1.2-0.7-0.8-1.1-3-1.7-2.7M59.9 
 16.9c1.7 0 3.3-0.2 5.1 0.2 4.4 1.1 8.1 3.3 10.6 6.4l7 11.2c0.3 2.8 0.9 5.9 0.8 9.3 0.7 0 0.6-1 1.4-1.2-0.8 2-1.2 4.5-1.4 7.4-0.5-1.6 
 0-4 0.1-5.3-0.7 1.1-1.1 0.3-1.1-0.2 0.1-0.8-0.3-0.7-0.6-1-1.1-1-1.8-2.1-2.6-3.8 0.5-1.3 0.6-3.2-1-4.2-0.5-0.3-1.1-0.8-1.4-1.6-0.4-1.1-1.1-2.4-0.9-4.1 0.1-0.5-1.5 1.1-2.4 0.4-3.9-2.7-7.8-5.8-12.5-8.4-2.5 0-4.3-0.9-5.2-2-0.8-1-0.2-2.3 1-2.4 0.7 0 1.5-0.2 2.1 0.2 0.1-0.4 0.5-0.9 1-0.9M50 14.6l0.2 0.1c1 0.2 1.5 1.6 2.6 1.1 0 0.7 0.1 1.4-0.1 1.9-0.3 0.8-1.2 0.8-1.9 0.8-6.7-0.4-10.6 2.4-14.7 4.8-1.1 0.7-2.3 1.2-3.2 2.1-4.3 4-9 7.7-10.1 15.1l-0.9 8.2c-0.1 0.9-1.1 1.8-0.9 2.9l0.7 4.9c-0.7-0.7-1.1 0.2-0.9 0.6 0.1 0.3 0.5 1.3 1.1 0.4 0.8 1.5 1.6 4.4 2.7 5.7 3.4 4 7.8 7.6 11.4 11.2 0.9-0.2 1.6-0.2 1.8-0.8 0.3 0.6-0.3 1.2-0.8 1.3 1.6 1 3.4 1.9 5.8 2.1 3.1 0.2 6 0.7 8.7 1.4 1.4-0.4 2.8-0.6 4.3-0.7 0.5 0 0.8-0.8 1.4-1l0.1-1c0.6 0.9 0.5-0.3 0.1-0.9 0.7 0.6 0.9 1.1 1.2 1.5 0-0.3 0.8-1.4 0.8-0.1l0.2-1.3c0.3-0.2 0.4 1.1 0.7 0.2 0.3-0.9 0.9-0.2 1.5-0.5-0.2 0.4-0.1 1.2 0.6 0.7l0.8-0.7c0.5 1.2 1.3 0.7 1.7 0.5 4.4-2.8 8.8-6.1 13-9.4l-0.1 1.3 0.5-1.6c0.5 0.5 0.9 0.1 1.1-0.2 0.6-1 1.4-2 2.7-2.9-1.6 4.3-3.5 7.7-5.9 10.5l-1 1.2c0 0.7-0.2 1.6-1 1.7-0.4 0.1-1.2-0.2-1.8 0.4-0.3 0.4 0.7 1.2-0.1 0.6-0.7-0.5-1.4 0-2.2 0.2-0.6 0.2 0.4 0.8 0.6 1.2 0.2 0.4 0.4 0.8 0.3 1.3l-1.1-1.2c-1.3 0.7-2.1 2-3.2 3-0.5 0.4-0.3 1.1-0.3 1.7-0.7 0-1.5-0.2-1.9 0.2-0.3 0.4-0.2 1-0.2 1.6-1-0.1-1.1-1.6-2-1.3-0.9 0.2-1.9 0.3-2.7 0.8 0.6 1.2-1 0.5-0.8 0.7-1.5-0.9-2.8-1.6-4.4-1-3.4-1.1-7.6-0.6-10.7-0.2 0-0.5 0.1-1-0.1-1.1-0.2 0.5-0.8 0.3-0.7 0.3-1.9-1.3-3.8-2.1-5.8-3.2-1.8 0.2-3.5-0.7-4-1.2-1.4-1.3-3-0.6-4.3-0.9-2.8-0.7-3.8-3.6-4.1-5.6-0.2-1-1-1.4-1.3-1.3-1.3-4.2-3.3-8-4.9-11.9-0.4-1-0.3-2-0.3-3.1 0.5 0.2 1 0.1 0.9-0.6-0.5-3.3-1.7-5.8-3-8.2 0.7-3.4 0.8-7.4 2.4-10.4 1.4-2.7 4-4.1 5.8-6.4 0.6-0.8 0.6-1.9 1.2-2.6 2-2 4-4.1 6.2-5.9 1-0.8 2.2 0 3.7-0.3 0.5-1.8 2.5-3.4 4.4-2.9 0.8 0.2 2.4-1.9 2.9-2.1 0.8-0.3 0.4 0.8 0.4 1.5 1.9-1.5 4.5-2.3 6.9-3.2" fill="#ff4057" fill-rule="nonzero" stroke="none" stroke-width="1" stroke-linecap="butt" stroke-linejoin="miter" stroke-miterlimit="10" stroke-dasharray="" stroke-dashoffset="0" font-family="none" font-weight="none" font-size="none" text-anchor="none" style="mix-blend-mode: normal" data-fill-palette-color="tertiary"></path></g><g transform="matrix(1,0,0,1,64,92.97985041234222)"><svg viewBox="0 0 192 174.04029917531557" height="174.04029917531557" width="192"><g><svg viewBox="0 0 192 174.04029917531557" height="174.04029917531557" width="192"><g><svg viewBox="0 0 192 174.04029917531557" height="174.04029917531557" width="192"><g transform="matrix(1,0,0,1,0,105.19317435063114)"><svg viewBox="0 0 192 68.84712482468443" height="68.84712482468443" width="192"><g id="textblocktransform"><svg viewBox="0 0 192 68.84712482468443" height="68.84712482468443" width="192" id="textblock"><g><svg viewBox="0 0 192 68.84712482468443" height="68.84712482468443" width="192"><g transform="matrix(1,0,0,1,0,0)"><svg width="192" viewBox="2.25 -36.79 104.43 37.449999999999996" height="68.84712482468443" data-palette-color="#ff4057"><path d="M23.14-7.69L33.84-36.01 43.6-36.01 43.6-35.01 39.36-33.25 39.36-2.76 43.85-1 43.85 0 31.59 0 31.59-1 35.5-2.76 35.5-30.76 35.21-30.76 23.71 0 21.24 0 10.25-30.86 10.01-30.86 10.01-3 13.99-1 13.99 0 2.49 0 2.49-1 6.74-3 6.74-33.25 2.25-35.01 2.25-36.01 13.89-36.01 13.99-33.69 22.95-7.69 23.14-7.69ZM49.85-9.74L52.24-3.2Q56.08-2.25 58.64-2.25L58.64-2.25Q59.96-2.25 61.24-2.53 62.52-2.81 63.54-3.49 64.55-4.17 65.17-5.31 65.79-6.45 65.79-8.15L65.79-8.15Q65.79-9.28 65.48-10.27 65.16-11.25 64.32-12.23 63.47-13.21 62.03-14.22 60.59-15.23 58.35-16.46L58.35-16.46Q55.91-17.77 54.14-18.96 52.37-20.14 51.21-21.41 50.05-22.68 49.5-24.15 48.95-25.61 48.95-27.49L48.95-27.49Q48.95-36.69 60.45-36.69L60.45-36.69Q64.52-36.69 69.04-35.55L69.04-35.55 69.04-27.1 68.04-27.1 65.4-33.3Q62.81-33.84 60.74-33.84L60.74-33.84Q57.25-33.84 55.3-32.51 53.34-31.18 53.34-28.39L53.34-28.39Q53.34-27.42 53.61-26.54 53.88-25.66 54.71-24.71 55.54-23.75 57.05-22.68 58.57-21.61 61.03-20.24L61.03-20.24Q63.47-18.92 65.29-17.8 67.11-16.67 68.31-15.49 69.5-14.31 70.1-12.92 70.7-11.52 70.7-9.69L70.7-9.69Q70.7-6.76 69.72-4.8 68.75-2.83 67.1-1.62 65.45-0.42 63.25 0.1 61.06 0.61 58.64 0.61L58.64 0.61Q57.22 0.61 56.02 0.52 54.81 0.44 53.64 0.26 52.46 0.07 51.24-0.23 50.02-0.54 48.58-0.95L48.58-0.95 48.58-9.74 49.85-9.74ZM105.68-13.21L105.68-1.81Q104.27-1.12 102.96-0.66 101.66-0.2 100.37 0.1 99.09 0.39 97.79 0.52 96.48 0.66 95.09 0.66L95.09 0.66Q92.62 0.66 90.29 0.12 87.96-0.42 85.88-1.45 83.81-2.49 82.08-4.04 80.34-5.59 79.08-7.63 77.83-9.67 77.13-12.16 76.44-14.65 76.44-17.6L76.44-17.6Q76.44-20.78 77.19-23.44 77.95-26.1 79.29-28.23 80.63-30.37 82.5-31.97 84.37-33.57 86.62-34.64 88.86-35.72 91.39-36.25 93.92-36.79 96.58-36.79L96.58-36.79Q101.04-36.79 105.07-35.45L105.07-35.45 105.02-26.15 104.02-26.15 101.02-33.06Q98.6-33.84 95.94-33.84L95.94-33.84Q93.23-33.84 90.72-32.92 88.2-32.01 86.27-30.08 84.35-28.15 83.19-25.12 82.03-22.09 82.03-17.9L82.03-17.9Q82.03-13.96 83.15-11 84.27-8.03 86.21-6.03 88.15-4.03 90.74-3.02 93.33-2 96.24-2L96.24-2Q98.77-2 101.19-2.71L101.19-2.71 101.19-14.55 94.84-15.8 94.84-17.31 105.68-17.31 106.68-16.31 105.68-13.21Z" opacity="1" transform="matrix(1,0,0,1,0,0)" fill="#ff4057" class="wordmark-text-0" data-fill-palette-color="primary" id="text-0"></path></svg></g></svg></g></svg></g></svg></g><g transform="matrix(1,0,0,1,68.81522099779603,0)"><svg viewBox="0 0 54.369558004407935 95.1467265077139" height="95.1467265077139" width="54.369558004407935"><g><svg xmlns="http://www.w3.org/2000/svg" xmlns:xlink="http://www.w3.org/1999/xlink" version="1.1" x="0" y="0" viewBox="30 15 40 70" enable-background="new 0 0 100 100" xml:space="preserve" height="95.1467265077139" width="54.369558004407935" class="icon-icon-0" data-fill-palette-color="accent" id="icon-0"><circle cx="62.5" cy="50" r="2.5" fill="#dcdcdc" data-fill-palette-color="accent"></circle><circle fill="#dcdcdc" cx="37.5" cy="22.5" r="2.5" data-fill-palette-color="accent"></circle><circle fill="#dcdcdc" cx="62.5" cy="77.5" r="2.5" data-fill-palette-color="accent"></circle><circle fill="#dcdcdc" cx="37.5" cy="50" r="7.5" data-fill-palette-color="accent"></circle><circle fill="#dcdcdc" cx="37.5" cy="77.5" r="7.5" data-fill-palette-color="accent"></circle><circle fill="#dcdcdc" cx="62.5" cy="22.5" r="7.5" data-fill-palette-color="accent"></circle></svg></g></svg></g><g></g></svg></g></svg></g></svg></g></svg></g><defs></defs></svg><rect width="320" height="360" fill="none" stroke="none" visibility="hidden"></rect></g></svg></g></svg>